HIERARCHY
ROOT Hips
{
	OFFSET 0.00000 0.00000 0.00000
	CHANNELS 6 Xposition Yposition Zposition Zrotation Yrotation Xrotation 
	JOINT LHipJoint
	{
		OFFSET 0 0 0
		CHANNELS 3 Zrotation Yrotation Xrotation
		JOINT LeftHip
		{
			OFFSET 1.66553 -1.82942 0.76350
			CHANNELS 3 Zrotation Yrotation Xrotation
			JOINT LeftKnee
			{
				OFFSET 2.41740 -6.64177 0.00000
				CHANNELS 3 Zrotation Yrotation Xrotation
				JOINT LeftAnkle
				{
					OFFSET 2.71614 -7.46254 0.00000
					CHANNELS 3 Zrotation Yrotation Xrotation
					JOINT LeftToe
					{
						OFFSET 0.08005 -0.21993 1.82495
						CHANNELS 3 Zrotation Yrotation Xrotation
						End Site
						{
							OFFSET 0.00000 -0.00000 0.93441
						}
					}
				}
			}
		}
	}
	JOINT RHipJoint
	{
		OFFSET 0 0 0
		CHANNELS 3 Zrotation Yrotation Xrotation
		JOINT RightHip
		{
			OFFSET -1.63725 -1.82942 0.76350
			CHANNELS 3 Zrotation Yrotation Xrotation
			JOINT RightKnee
			{
				OFFSET -2.40538 -6.60872 0.00000
				CHANNELS 3 Zrotation Yrotation Xrotation
				JOINT RightAnkle
				{
					OFFSET -2.73312 -7.50919 0.00000
					CHANNELS 3 Zrotation Yrotation Xrotation
					JOINT RightToe
					{
						OFFSET -0.15567 -0.42769 1.93504
						CHANNELS 3 Zrotation Yrotation Xrotation
						End Site
						{
							OFFSET -0.00000 -0.00000 1.00100
						}
					}
				}
			}
		}
	}
	JOINT lowerback
	{
		OFFSET 0 0 0
		CHANNELS 3 Zrotation Yrotation Xrotation
		JOINT Chest
		{
			OFFSET 0.00326 2.30118 -0.13017
			CHANNELS 3 Zrotation Yrotation Xrotation
			JOINT Chest2
			{
				OFFSET 0.02887 2.30677 0.00834
				CHANNELS 3 Zrotation Yrotation Xrotation
				JOINT lowerneck
				{
					OFFSET 0 0 0
					CHANNELS 3 Zrotation Yrotation Xrotation
					JOINT Neck
					{
						OFFSET 0.12946 1.68326 0.00713
						CHANNELS 3 Zrotation Yrotation Xrotation
						JOINT Head
						{
							OFFSET -0.24364 1.67243 -0.16079
							CHANNELS 3 Zrotation Yrotation Xrotation
							End Site
							{
								OFFSET -0.09229 1.70819 -0.06383
							}
						}
					}
				}
				JOINT LeftCollar
				{
					OFFSET 0 0 0
					CHANNELS 3 Zrotation Yrotation Xrotation
					JOINT LeftShoulder
					{
						OFFSET 3.28104 0.69567 -0.00556
CHANNELS 3 Zrotation Xrotation Yrotation
						JOINT LeftElbow
						{
OFFSET 0 -5.707060 -0.000000
CHANNELS 3 Zrotation Xrotation Yrotation
							JOINT LeftWrist
							{
OFFSET 0 -3.332430 0.000000
CHANNELS 3 Zrotation Xrotation Yrotation
								JOINT lhand
								{
									OFFSET 0 0 0
CHANNELS 3 Zrotation Xrotation Yrotation
									JOINT LFingers
									{
OFFSET 0 -0.792690 0.000000
CHANNELS 3 Zrotation Xrotation Yrotation
										End Site
										{
OFFSET 0 -0.639090 0.000000
										}
									}
								}
								JOINT LThumb
								{
OFFSET 0 0.000000 0.000000
CHANNELS 3 Zrotation Xrotation Yrotation
									End Site
									{
OFFSET 0 -0.648840 0.648840
									}
								}
							}
						}
					}
				}
				JOINT RightCollar
				{
					OFFSET 0 0 0
					CHANNELS 3 Zrotation Yrotation Xrotation
					JOINT RightShoulder
					{
						OFFSET -3.40955 0.64424 0.14010
CHANNELS 3 Zrotation Xrotation Yrotation
						JOINT RightElbow
						{
OFFSET 0 -5.881760 -0.000000
CHANNELS 3 Zrotation Xrotation Yrotation
							JOINT RightWrist
							{
OFFSET 0 -3.281560 0.000000
CHANNELS 3 Zrotation Xrotation Yrotation
								JOINT rhand
								{
									OFFSET 0 0 0
CHANNELS 3 Zrotation Xrotation Yrotation
									JOINT RFingers
									{
OFFSET 0 -0.863130 0.000000
CHANNELS 3 Zrotation Xrotation Yrotation
										End Site
										{
OFFSET 0 -0.695870 0.000000
										}
									}
								}
								JOINT RThumb
								{
OFFSET 0 0.000000 0.000000
CHANNELS 3 Zrotation Xrotation Yrotation
									End Site
									{
OFFSET 0 -0.706500 0.706500
									}
								}
							}
						}
					}
				}
			}
		}
	}
}
MOTION
Frames: 6
Frame Time: 0.008333333333333333
8.573830 17.034258 -33.010296 15.887717 4.090458 9.383186 0.000000 0.000000 0.000000 -26.970332 7.462643 -33.764942 5.739964 14.171391 43.928752 -0.246253 -10.169512 -1.782539 2.306662 -9.458595 -27.255872 0.000000 0.000000 0.000000 -5.475806 5.857707 -33.793738 -7.589037 -15.808402 51.068276 -1.914111 -3.144825 -27.418652 -0.546849 4.737180 -13.160640 -5.240378 -3.317341 16.015445 -9.390980 -6.989503 -4.939336 -5.765061 -3.365722 -15.429364 10.287753 1.873750 1.847405 -21.058879 1.875791 -5.369829 -8.282562 1.223602 -1.517767 0.000000 0.000000 0.000000 103.306693 -12.306109 20.335813 53.263233 -54.228910 28.801725 16.819004 -7.462000 -11.762993 0.000000 0.000000 0.000000 -7.125000 0.000000 0.000000 -9.292889 42.067922 -0.679024 0.000000 0.000000 0.000000 -111.467837 -25.858788 -38.029157 -34.887480 -44.731335 -14.734263 23.816756 0.603386 -13.761901 0.000000 0.000000 0.000000 7.125000 0.000000 0.000000 32.721388 15.641526 27.735739
7.847084 16.901634 -33.041677 18.180350 10.133292 8.969701 0.000000 0.000000 0.000000 -25.677116 4.731163 -33.940669 6.170982 14.592074 45.664265 -0.364352 -10.693244 5.201914 0.971860 -6.273316 -17.580419 0.000000 0.000000 0.000000 -4.678133 1.629400 -33.415987 -8.526379 -16.493157 54.437450 -2.527857 -3.084067 -31.265860 -0.114244 2.178654 -5.999582 -5.620907 -3.556762 17.600483 -10.304204 -7.561967 -3.937332 -6.368555 -3.633036 -15.359851 10.780268 4.142428 2.743165 -21.603582 4.915531 -6.577065 -8.584860 2.831809 -1.477770 0.000000 0.000000 0.000000 101.040385 -14.081218 20.747440 58.736570 -55.963666 33.291972 19.857831 -6.854714 -11.490535 0.000000 0.000000 0.000000 -7.125000 0.000000 0.000000 -6.550586 42.084310 -0.473463 0.000000 0.000000 0.000000 -110.756404 -22.710802 -35.594329 -39.320097 -47.661792 -17.935078 17.068063 5.205145 -13.665946 0.000000 0.000000 0.000000 7.125000 0.000000 0.000000 29.129772 16.414450 22.925061
7.165552 16.744566 -33.075587 18.878805 16.525947 9.113541 0.000000 0.000000 0.000000 -22.870676 0.080329 -36.237953 7.098783 15.414374 49.246707 -0.045955 -9.129397 12.143901 0.483251 -4.456910 -12.365992 0.000000 0.000000 0.000000 -2.233183 -3.131613 -33.882966 -9.295923 -16.994360 57.107849 -2.906160 -3.671976 -33.668515 -0.027490 1.063132 -2.922625 -4.448987 -3.533103 19.170632 -10.358398 -7.381538 -3.615432 -7.116045 -3.645275 -16.080390 11.380832 5.976887 6.164692 -21.482068 7.426462 -8.935916 -8.827259 4.315581 -2.294982 0.000000 0.000000 0.000000 98.616895 -16.297331 19.425026 64.602419 -57.416363 38.195902 21.432125 -4.980070 -11.055891 0.000000 0.000000 0.000000 -7.125000 0.000000 0.000000 -5.081454 41.780305 -0.404786 0.000000 0.000000 0.000000 -109.149821 -19.413217 -32.827245 -44.470791 -50.506205 -21.829656 8.979289 8.593267 -13.408981 0.000000 0.000000 0.000000 7.125000 0.000000 0.000000 24.370642 16.992744 17.892982
6.585405 16.515182 -33.080887 19.055530 22.894975 8.023166 0.000000 0.000000 0.000000 -19.832776 -4.654169 -36.794231 7.852796 16.009805 52.030634 0.705008 -3.078016 17.270970 1.163154 6.833625 19.228449 0.000000 0.000000 0.000000 0.247441 -7.499323 -33.562298 -10.225949 -17.534865 60.240786 -3.354982 -3.839620 -36.121474 -0.009730 -0.636871 1.750236 -3.237315 -3.163415 21.627561 -9.867010 -6.673906 -3.310395 -7.035373 -3.310064 -16.896483 12.426997 7.549769 8.085331 -21.970562 9.827370 -9.301897 -9.242592 5.610541 -2.228096 0.000000 0.000000 0.000000 95.151884 -18.984036 17.182584 71.057057 -58.598586 43.672222 22.750301 -4.665114 -11.551062 0.000000 0.000000 0.000000 -7.125000 0.000000 0.000000 -3.979324 42.441896 -0.251835 0.000000 0.000000 0.000000 -107.116298 -17.380221 -32.077568 -49.933422 -52.968264 -26.121107 0.475266 9.386030 -13.297854 0.000000 0.000000 0.000000 7.125000 0.000000 0.000000 18.944783 17.080065 13.297874
6.111601 16.297543 -32.994778 18.499954 29.224002 5.721202 0.000000 0.000000 0.000000 -17.361490 -7.248052 -37.415473 8.783430 16.666294 55.337949 1.127497 -2.424455 21.066524 0.804894 5.725542 15.990158 0.000000 0.000000 0.000000 2.873992 -12.342994 -31.786477 -10.900854 -17.886233 62.459219 -3.785034 -4.137821 -38.382437 -0.069311 -1.695353 4.664524 -2.674191 -3.075563 22.380339 -8.267268 -5.965097 -1.423788 -5.960880 -2.937710 -15.027031 13.762232 8.375183 7.427419 -23.341704 11.097230 -8.902398 -9.821547 6.234290 -1.589902 0.000000 0.000000 0.000000 92.325876 -19.644522 16.308713 77.775308 -59.427660 49.433475 24.955405 -7.164982 -12.403922 0.000000 0.000000 0.000000 -7.125000 0.000000 0.000000 -2.103586 43.605520 -0.072468 0.000000 0.000000 0.000000 -105.539583 -18.698240 -34.569889 -52.458473 -53.940149 -28.149749 -6.217950 4.831528 -11.920873 0.000000 0.000000 0.000000 7.125000 0.000000 0.000000 14.569440 18.200212 9.605852
5.740401 16.153985 -32.855089 15.834156 34.031018 2.056230 0.000000 0.000000 0.000000 -13.064359 -9.222012 -38.414064 9.875664 17.339296 59.071984 1.468338 -1.409569 23.447986 1.360788 7.383554 20.856860 0.000000 0.000000 0.000000 6.944106 -15.543638 -28.887481 -10.941446 -17.906313 62.591336 -4.059400 -4.668726 -39.894227 -0.292814 -3.479784 9.617501 -1.365801 -2.401612 23.146985 -6.391686 -4.370092 -0.273264 -5.031303 -2.179021 -13.826898 14.309645 8.721359 10.084894 -23.496471 11.624894 -11.087042 -10.233580 6.683504 -2.517776 0.000000 0.000000 0.000000 90.260062 -20.492480 14.308556 83.372611 -59.833207 54.263742 25.880292 -7.863320 -12.490663 0.000000 0.000000 0.000000 -7.125000 0.000000 0.000000 -1.268923 43.808316 -0.037387 0.000000 0.000000 0.000000 -103.282916 -20.266653 -35.512214 -51.903934 -53.735100 -27.702092 -11.864839 2.611184 -12.623316 0.000000 0.000000 0.000000 7.125000 0.000000 0.000000 10.658244 17.224647 7.149689
